<svg xmlns="http://www.w3.org/2000/svg" width="440" height="307" viewBox="0 0 440 307">
    <g fill="#E7E7E7" fill-rule="evenodd">
        <path d="M58.5 117C26.191 117 0 90.809 0 58.5S26.191 0 58.5 0 117 26.191 117 58.5 90.809 117 58.5 117zm0-31.2c15.077 0 27.3-12.223 27.3-27.3S73.577 31.2 58.5 31.2 31.2 43.423 31.2 58.5s12.223 27.3 27.3 27.3zM26.381 302.534c-6.072 5.991-15.874 5.95-21.894-.095-6.02-6.043-5.977-15.8.095-21.792L131.912 155l71.766 62.133c6.452 5.585 7.133 15.318 1.521 21.74-5.611 6.42-15.39 7.098-21.84 1.513l-50.07-43.348L26.381 302.534z"/>
        <path d="M143.257 302.489c-6.006 6.014-15.745 6.015-21.752 0-6.006-6.013-6.007-15.764 0-21.779L323.937 78l110.825 97.365c6.385 5.61 7.02 15.34 1.417 21.734-5.602 6.393-15.32 7.028-21.705 1.419l-89.162-78.333-182.056 182.304z"/>
    </g>
</svg>
